<svg width="900" height="900" viewBox="0 0 900 900" fill="none" xmlns="http://www.w3.org/2000/svg">
<rect width="900" height="900" fill="white"/>
<path d="M468.3 633H419.1C413.5 633 408.9 631.6 405.3 628.8C401.7 626 399.1 622.5 397.5 618.3L359.4 518.1H169.5L131.4 618.3C130 622.1 127.4 625.5 123.6 628.5C119.8 631.5 115.2 633 109.8 633H60.6L232.2 202.2H296.7L468.3 633ZM342 472.5L278.1 305.1C273.5 293.7 268.9 279.3 264.3 261.9C259.9 279.3 255.4 293.8 250.8 305.4L186.9 472.5H342Z" fill="#181818"/>
<path d="M839.3 633H783.8C775.8 633 769.8 631.9 765.8 629.7C761.8 627.3 758.5 624 755.9 619.8L613.7 451.8C610.1 446.6 605.9 443 601.1 441C596.3 438.8 589.2 437.7 579.8 437.7H553.7V633H490.1V202.2H553.7V388.8H574.7C590.1 388.8 600.5 384.6 605.9 376.2L743.3 216.6C749.7 207 759.9 202.2 773.9 202.2H828.2L668.9 385.8C660.9 395.6 652.8 402.5 644.6 406.5C655.6 410.3 665.3 418 673.7 429.6L839.3 633Z" fill="#181818"/>
</svg>
